<?xml version="1.0" standalone="no"?>
<!DOCTYPE svg PUBLIC "-//W3C//DTD SVG 20010904//EN"
 "http://www.w3.org/TR/2001/REC-SVG-20010904/DTD/svg10.dtd">
<svg version="1.0" xmlns="http://www.w3.org/2000/svg"
 width="1280.000000pt" height="640.000000pt" viewBox="0 0 1280.000000 640.000000"
 preserveAspectRatio="xMidYMid meet">
<metadata>
Created by potrace 1.15, written by Peter Selinger 2001-2017
</metadata>
<g transform="translate(0.000000,640.000000) scale(0.100000,-0.100000)"
fill="#9f1239" stroke="none">
<path d="M12232 4207 c-43 -16 -99 -62 -123 -101 -19 -31 -25 -92 -11 -112 32
-46 125 -58 197 -25 50 22 111 89 120 131 20 91 -74 146 -183 107z"/>
<path d="M7391 4177 c-43 -17 -107 -71 -126 -107 -31 -59 -20 -122 25 -145 79
-41 213 13 260 105 43 84 11 150 -76 156 -27 2 -64 -2 -83 -9z"/>
<path d="M2795 4151 c-126 -31 -209 -171 -140 -235 52 -48 147 -40 228 18 34
25 77 94 77 124 0 75 -72 115 -165 93z"/>
<path d="M12585 4043 c-11 -2 -37 -9 -58 -14 -45 -12 -121 -78 -135 -117 -12
-36 5 -89 38 -114 67 -49 199 -27 274 45 72 69 72 143 -2 181 -33 17 -89 26
-117 19z"/>
<path d="M7735 4031 c-85 -21 -166 -90 -179 -151 -25 -129 188 -165 307 -52
86 81 72 173 -29 201 -43 12 -55 12 -99 2z"/>
<path d="M3119 3980 c-150 -25 -239 -155 -159 -230 71 -66 221 -43 298 44 91
103 11 210 -139 186z"/>
<path d="M11850 3983 c-64 -19 -96 -64 -85 -119 3 -19 21 -66 40 -105 47 -98
51 -132 26 -228 -30 -113 -28 -146 10 -183 27 -28 34 -30 77 -24 62 8 138 56
228 142 85 82 114 135 114 214 0 100 -60 184 -169 239 -81 41 -207 74 -241 64z"/>
<path d="M6993 3916 c-33 -15 -63 -60 -63 -97 0 -12 14 -49 32 -83 67 -130 70
-138 69 -195 0 -31 -5 -72 -11 -91 -13 -45 -13 -116 1 -142 6 -11 25 -26 44
-33 64 -27 144 15 261 138 125 129 148 212 91 325 -12 24 -36 57 -55 73 -91
80 -294 138 -369 105z"/>
<path d="M2363 3910 c-32 -13 -57 -57 -56 -98 1 -19 18 -71 39 -115 46 -98 54
-163 28 -238 -41 -123 -14 -199 71 -199 110 0 323 182 356 303 30 111 -44 236
-176 298 -106 50 -211 70 -262 49z"/>
<path d="M12522 3706 c-53 -17 -80 -41 -99 -84 -12 -29 -12 -37 3 -68 57 -120
293 -134 359 -22 62 105 -116 222 -263 174z"/>
<path d="M7720 3699 c-67 -21 -120 -76 -120 -128 0 -27 45 -78 91 -101 43 -22
130 -26 191 -10 46 13 94 60 103 100 20 93 -139 177 -265 139z"/>
<path d="M3085 3651 c-78 -20 -125 -67 -125 -125 0 -53 82 -117 167 -130 103
-15 213 44 213 115 0 48 -31 93 -82 117 -49 24 -129 35 -173 23z"/>
<path d="M12232 3453 c-48 -23 -67 -66 -53 -114 21 -70 102 -119 199 -119 94
0 156 55 138 123 -24 96 -185 159 -284 110z"/>
<path d="M7445 3430 c-37 -15 -69 -59 -69 -93 0 -77 92 -142 200 -141 100 1
166 58 148 128 -10 40 -63 90 -111 104 -45 14 -138 15 -168 2z"/>
<path d="M2784 3396 c-89 -39 -83 -148 11 -206 50 -31 167 -40 213 -16 41 21
65 68 57 107 -20 92 -183 158 -281 115z"/>
<path d="M5047 3355 c-103 -36 -149 -141 -87 -200 60 -58 190 -43 267 30 37
35 43 47 43 81 0 44 -24 79 -67 95 -35 13 -111 10 -156 -6z"/>
<path d="M4653 3233 c-30 -6 -70 -48 -76 -81 -3 -15 4 -70 15 -122 25 -116 21
-149 -31 -249 -46 -89 -51 -135 -21 -174 40 -51 131 -42 270 28 154 78 229
173 217 278 -10 80 -53 154 -122 210 -90 72 -198 120 -252 110z"/>
<path d="M9940 3211 c-107 -33 -175 -126 -136 -186 28 -43 61 -57 129 -57 142
0 253 120 188 204 -31 39 -118 58 -181 39z"/>
<path d="M545 3168 c-74 -26 -132 -101 -119 -153 9 -37 58 -73 111 -81 105
-16 233 63 233 144 0 42 -25 77 -67 93 -32 12 -120 10 -158 -3z"/>
<path d="M5332 3129 c-56 -11 -109 -44 -133 -83 -23 -38 -23 -49 -3 -92 46
-98 256 -101 337 -5 86 102 -38 213 -201 180z"/>
<path d="M9481 3054 c-40 -33 -48 -78 -27 -159 28 -111 22 -173 -24 -265 -57
-113 -54 -174 10 -200 49 -20 123 -6 224 45 163 81 230 158 229 266 -1 66 -26
129 -73 183 -65 74 -212 156 -280 156 -16 0 -42 -11 -59 -26z"/>
<path d="M121 3046 c-53 -29 -60 -72 -35 -204 19 -104 15 -127 -41 -235 -25
-47 -45 -99 -45 -115 0 -41 34 -80 77 -88 110 -21 364 113 420 220 10 19 17
55 17 92 0 120 -84 230 -236 308 -74 38 -117 44 -157 22z"/>
<path d="M10169 2966 c-102 -36 -147 -118 -98 -180 42 -54 123 -75 216 -56 76
16 143 78 143 132 0 90 -142 147 -261 104z"/>
<path d="M786 2926 c-50 -19 -104 -72 -111 -111 -8 -40 22 -87 69 -109 107
-50 247 -17 299 71 26 45 10 94 -44 130 -49 32 -153 41 -213 19z"/>
<path d="M5224 2806 c-113 -51 -89 -174 46 -235 55 -25 148 -28 195 -5 46 21
70 73 55 118 -12 38 -60 86 -110 111 -46 24 -146 30 -186 11z"/>
<path d="M10105 2655 c-52 -18 -85 -57 -85 -98 0 -106 178 -197 295 -152 54
20 75 47 75 96 0 52 -36 99 -100 131 -69 34 -133 42 -185 23z"/>
<path d="M4925 2631 c-25 -11 -52 -41 -55 -61 -8 -57 1 -82 48 -128 71 -71
172 -93 239 -52 133 81 -81 303 -232 241z"/>
<path d="M705 2612 c-88 -41 -96 -112 -20 -187 65 -66 174 -93 248 -61 111 47
90 174 -39 233 -73 33 -139 39 -189 15z"/>
<path d="M9794 2476 c-64 -29 -78 -78 -44 -147 41 -80 165 -136 243 -110 51
17 80 57 73 100 -17 108 -177 200 -272 157z"/>
<path d="M400 2443 c-51 -26 -67 -61 -52 -111 24 -80 101 -139 194 -149 123
-12 172 95 86 192 -62 71 -164 101 -228 68z"/>
</g>
</svg>
